<svg width="1440" height="495" viewBox="0 0 1440 495" fill="none" xmlns="http://www.w3.org/2000/svg">
<path fill-rule="evenodd" clip-rule="evenodd" d="M1024.35 333.151L981.239 353.759C923.958 375.438 809.643 419.779 680.781 406.102C552.165 393.408 409.248 323.679 275.454 290.334C141.414 256.006 16.2501 257.079 -103.489 279.786C-223.229 302.493 -337.79 345.851 -395.071 367.53L-452.352 389.209L-367.039 729.452L-308.033 714.657C-249.026 699.861 -131.013 670.271 -12.9991 640.68C105.014 611.09 223.028 581.499 341.041 551.909C459.055 522.318 577.068 492.728 695.082 463.137C813.095 433.546 931.109 403.956 990.115 389.161L1035.54 377.77L1024.35 333.151Z" fill="#222222"/>
<path fill-rule="evenodd" clip-rule="evenodd" d="M2042.39 287.134L2005.99 318.092C1956.16 353.71 1857.01 425.834 1728.93 445.596C1601.35 466.245 1445.35 435.42 1307.48 437.432C1169.12 438.557 1048.4 471.631 938.459 524.231C828.521 576.83 728.873 648.066 679.05 683.685L629.226 719.303L798.785 1026.38L852.039 996.969C905.293 967.564 1011.8 908.752 1118.31 849.94C1224.82 791.129 1331.33 732.317 1437.83 673.505C1544.34 614.694 1650.85 555.882 1757.36 497.071C1863.87 438.259 1970.37 379.447 2023.63 350.041L2064.63 327.403L2042.39 287.134Z" fill="#222222"/>
</svg>
